<?xml version="1.0" encoding="UTF-8"?>
<svg width="512" height="512" version="1.1" viewBox="0 0 135.47 135.47" xmlns="http://www.w3.org/2000/svg" xmlns:cc="http://creativecommons.org/ns#" xmlns:dc="http://purl.org/dc/elements/1.1/" xmlns:osb="http://www.openswatchbook.org/uri/2009/osb" xmlns:rdf="http://www.w3.org/1999/02/22-rdf-syntax-ns#">
 <defs>
  <linearGradient id="linearGradient1094" gradientTransform="matrix(0 -.26406 .26406 0 332.94 683.8)" osb:paint="solid">
   <stop style="stop-color:#884b2e" offset="0"/>
  </linearGradient>
  <linearGradient id="linearGradient1088" gradientTransform="matrix(0 .14252 -1.5906 0 1379 -1164.9)" osb:paint="solid">
   <stop style="stop-color:#fff" offset="0"/>
  </linearGradient>
  <linearGradient id="linearGradient1100" gradientTransform="matrix(.10661 0 0 10.867 1745 -1305.5)" osb:paint="solid">
   <stop style="stop-color:#12100b" offset="0"/>
  </linearGradient>
  <linearGradient id="linearGradient1106" gradientTransform="matrix(.48657 -.48657 .78798 .78798 -305.77 349.23)" osb:paint="solid">
   <stop style="stop-color:#80b5e3" offset="0"/>
  </linearGradient>
  <linearGradient id="linearGradient1112" gradientTransform="matrix(.26458 0 0 .26458 149.77 -2.1302)" osb:paint="solid">
   <stop style="stop-color:#242c5c" offset="0"/>
  </linearGradient>
 </defs>
 <metadata>
  <rdf:RDF>
   <cc:Work rdf:about="">
    <dc:format>image/svg+xml</dc:format>
    <dc:type rdf:resource="http://purl.org/dc/dcmitype/StillImage"/>
    <dc:title/>
   </cc:Work>
  </rdf:RDF>
 </metadata>
 <g transform="matrix(2.0113 0 0 2.0113 -125.16 -123.76)">
  <path d="m62.23 101.94 13.47-13.47 13.47 13.47-13.47 13.47z" style="fill:url(#linearGradient1094);paint-order:stroke markers fill;stroke-linejoin:round;stroke-width:.99802"/>
  <path d="m75.7 112.8 12.161-12.161 1.3096 1.3096-13.47 13.47z" style="fill:url(#linearGradient1088);opacity:.2;paint-order:stroke markers fill;stroke-linejoin:round;stroke-width:.41132"/>
  <path d="m62.23 101.94 1.3096-1.3096 12.161 12.161v2.6192z" style="fill:url(#linearGradient1100);opacity:.2;paint-order:stroke markers fill;stroke-linejoin:round;stroke-width:.43316"/>
  <path d="m75.7 88.474 12.161 12.161-1.3096 1.3096-10.851-10.851z" style="fill:url(#linearGradient1088);opacity:.2;paint-order:stroke markers fill;stroke-linejoin:round;stroke-width:.41156"/>
  <g transform="rotate(-45 152.35 -1.9562)">
   <path d="m15.157 26.836h19.05v19.05h-19.05z" style="fill:url(#linearGradient1094);paint-order:stroke markers fill;stroke-linejoin:round;stroke-width:.99802"/>
   <path d="m17.009 44.034h17.198v1.8521l-19.05-1e-6z" style="fill:url(#linearGradient1088);opacity:.2;paint-order:stroke markers fill;stroke-linejoin:round;stroke-width:.41132"/>
   <path d="m15.157 26.836h1.8521l3e-6 17.198-1.8521 1.8521z" style="fill:url(#linearGradient1100);opacity:.2;paint-order:stroke markers fill;stroke-linejoin:round;stroke-width:.43316"/>
   <path transform="rotate(90)" d="m26.836-34.207h17.198v1.8521l-15.346 2e-6z" style="fill:url(#linearGradient1088);opacity:.2;paint-order:stroke markers fill;stroke-linejoin:round;stroke-width:.41156"/>
   <path transform="scale(-1)" d="m-32.355-28.688h15.346v1.8521h-17.198z" style="fill:url(#linearGradient1100);opacity:.2;paint-order:stroke markers fill;stroke-linejoin:round;stroke-width:.38877"/>
  </g>
  <g transform="rotate(-45 142.83 -24.952)">
   <path d="m15.157 26.836h19.05v19.05h-19.05z" style="fill:url(#linearGradient1094);paint-order:stroke markers fill;stroke-linejoin:round;stroke-width:.99802"/>
   <path d="m17.009 44.034h17.198v1.8521l-19.05-1e-6z" style="fill:url(#linearGradient1088);opacity:.2;paint-order:stroke markers fill;stroke-linejoin:round;stroke-width:.41132"/>
   <path d="m15.157 26.836h1.8521l3e-6 17.198-1.8521 1.8521z" style="fill:url(#linearGradient1100);opacity:.2;paint-order:stroke markers fill;stroke-linejoin:round;stroke-width:.43316"/>
   <path transform="rotate(90)" d="m26.836-34.207h17.198v1.8521l-15.346 2e-6z" style="fill:url(#linearGradient1088);opacity:.2;paint-order:stroke markers fill;stroke-linejoin:round;stroke-width:.41156"/>
   <path transform="scale(-1)" d="m-32.355-28.688h15.346v1.8521h-17.198z" style="fill:url(#linearGradient1100);opacity:.2;paint-order:stroke markers fill;stroke-linejoin:round;stroke-width:.38877"/>
  </g>
  <path d="m102.64 88.474 13.47-13.47 13.47 13.47-13.47 13.47z" style="fill:url(#linearGradient1094);paint-order:stroke markers fill;stroke-linejoin:round;stroke-width:.99802"/>
  <path d="m116.11 99.325 12.161-12.161 1.3096 1.3096-13.47 13.47z" style="fill:url(#linearGradient1088);opacity:.2;paint-order:stroke markers fill;stroke-linejoin:round;stroke-width:.41132"/>
  <path d="m102.64 88.474 1.3096-1.3096 12.161 12.161v2.6192z" style="fill:url(#linearGradient1100);opacity:.2;paint-order:stroke markers fill;stroke-linejoin:round;stroke-width:.43316"/>
  <path d="m116.11 77.623-10.851 10.851-1.3096-1.3096 12.161-12.161z" style="fill:url(#linearGradient1100);opacity:.2;paint-order:stroke markers fill;stroke-linejoin:round;stroke-width:.38877"/>
  <path d="m71.584 92.59 31.057-31.057 19.943 19.943-2.9603 0.39312-0.42611 2.6101-2.1574 0.98777-3.8269 4.4784-4.5152 1.0473-4.934 3.3855-1.7402 3.7942-2.1597-0.06453-2.6352 3.5092-3.1194 1.4309-0.82414 2.3882-2.8393 1.893-3.0333-1.9404-5.2898-0.94769-2.1585-3.7546-5.2459-3.8112-0.56083-3.0629z" style="fill:url(#linearGradient1106);paint-order:stroke markers fill;stroke-linejoin:round;stroke-width:.87569"/>
  <path d="m102.64 61.534 25.631 25.631-1.3096 1.3096-24.322-24.322z" style="fill:url(#linearGradient1088);opacity:.2;paint-order:stroke markers fill;stroke-linejoin:round;stroke-width:.41156"/>
  <path d="m102.64 64.153-37.792 37.792-1.3096-1.3096 39.102-39.102z" style="fill:url(#linearGradient1100);opacity:.2;paint-order:stroke markers fill;stroke-linejoin:round;stroke-width:.38877"/>
  <g transform="matrix(.62497 -.44135 .44135 .62497 8.8214 65.932)" style="fill:url(#linearGradient1112);stroke-width:.26458" aria-label="Checklatey">
   <path d="m56.274 86.196q0.29067-0.2877 0.50344-0.66643 0.21088-0.39129 0.38671-0.41772 0.18838-0.02831 0.27144 0.52428 0.08117 0.54003-0.15919 1.077-0.22968 0.52254-0.68296 0.92458-0.9279 0.83297-2.3345 1.0444-1.708 0.25672-2.7783-0.45572-1.0703-0.71244-1.2987-2.2321-0.28126-1.8713 0.37004-3.6901 0.21836-0.5979 0.52528-1.1192-0.33982-0.29568-0.57039-0.63346-0.2199-0.35223-0.24821-0.54061-0.05097-0.33909 0.20021-0.37684 0.17771-0.01387 0.43775 0.17822l0.44596 0.31825q0.17336 0.12806 0.35173 0.20399 1.0848-1.2418 2.5165-1.457 1.4443-0.21708 1.9921 0.52251 0.19601 0.27876 0.26208 0.71833 0.10004 0.66562-0.40971 1.2046-0.50976 0.53895-1.4894 0.68619-0.96704 0.14535-2.0698-0.09986-0.66328 1.6537-0.41411 3.3114 0.34544 2.2983 2.179 2.0227 1.1303-0.16989 2.013-1.0474zm-3.2921-5.156q0.6726 0.11723 1.4261 4e-3 0.75354-0.11326 0.69124-0.5277-0.07362-0.4898-0.68901-0.3973-0.84145 0.12647-1.4284 0.92103z" style="fill:url(#linearGradient1112);stroke-width:.26458"/>
   <path d="m61.18 83.853q-0.01049-0.45708-0.55644-0.44456-0.53326 0.01223-1.0346 0.86216-0.50163 0.83722-0.60879 1.7035 0.03209 0.29144 0.06419 0.58288 0.03209 0.29144 0.0385 0.57077 0.01544 0.67292-0.42341 0.92435-0.20052 0.11893-0.38864 0.22487-0.17542 0.10565-0.41666 0.11119-0.24124 0.0055-0.43897-0.30751-0.18533-0.32604-0.20106-1.0117-0.04398-1.9172 0.20301-3.3329 0.38159-2.1937 1.6069-4.7117 0.16989-0.34689 0.51299-0.34206 0.34281-0.0079 0.56943 0.45696 0.22662 0.46482 0.22121 0.78253 0.0073 0.31742-0.0873 0.62447-0.08218 0.29406-0.22784 0.58958-0.13326 0.28253-0.31671 0.59162-0.17105 0.2961-0.34094 0.64299l-0.16948 0.91853q0.47624-0.83664 1.3078-1.1352 0.30239-0.10856 0.67059-0.11701 0.86337-0.01981 1.3168 0.3636 0.45312 0.3707 0.46943 1.0817 0.01602 0.69832-0.15783 1.4264-0.16115 0.72779-0.24274 1.0472-0.06919 0.30647-0.06453 0.50961 0.0047 0.20315 0.14432 0.19994 0.19045-0.0044 0.46424-0.25201 0.27379-0.24764 0.54671-0.53338 0.27263-0.29843 0.49563-0.54491 0.2357-0.24677 0.32458-0.24881 0.17775-0.0041 0.18766 0.42761 0.02039 0.88877-0.83675 1.7341-1.453 0.89716-1.8593 0.90648-0.03809 8.74e-4 -0.05108-0.01153-1.0157 0.0233-1.053-1.6019-0.01602-0.69832 0.09755-1.2853 0.12626-0.58725 0.18363-0.85534 0.05737-0.26809 0.05096-0.54741z" style="fill:url(#linearGradient1112);stroke-width:.26458"/>
   <path d="m66.219 86.913q0.98876 0.06038 1.9621-0.66906 0.36006-0.27066 0.59027-0.49835 0.23098-0.24037 0.34507-0.2334 0.17747 0.01084 0.1558 0.36578-0.02167 0.35494-0.23891 0.787-0.21646 0.41939-0.68568 0.81062-1.1529 0.96022-3.0543 0.84411-1.5085-0.09211-1.987-1.2156-0.16692-0.3919-0.12358-1.1018 0.04335-0.70988 0.36867-1.4534 0.3261-0.75623 0.8165-1.2861 0.50308-0.52912 1.1301-0.7962 0.62782-0.27976 1.3123-0.23796 0.6972 0.04257 1.0439 0.40728 0.35939 0.36548 0.32611 0.91057-0.03328 0.54508-0.33384 0.883-0.2871 0.32601-0.73281 0.54054-0.44493 0.20186-0.98895 0.35949-0.53057 0.14573-1.0516 0.34295l-0.01935 0.31691q-0.01519 0.45712 0.34082 0.66972t0.82426 0.25391zm0.0028-3.5879q-0.65917-0.04025-1.0064 1.4781 0.27704-0.16122 0.51373-0.28672 0.24937-0.12473 0.43458-0.24066 0.39732-0.25566 0.43167-0.60982 0.01935-0.31691-0.37362-0.3409z" style="fill:url(#linearGradient1112);stroke-width:.26458"/>
   <path d="m73.536 86.109q0.22678 0.02875 0.17728 0.41932-0.04791 0.37798-0.30539 0.7934-0.24488 0.41702-0.70076 0.78169-0.44168 0.35367-1.0958 0.5652-0.65409 0.21153-1.4982 0.10453-0.83155-0.1054-1.3992-0.67662-0.56608-0.58382-0.44791-1.5162 0.11977-0.94494 0.50537-1.6642 0.3998-0.73022 0.94883-1.2239 0.56164-0.49208 1.2173-0.71621 0.65728-0.23673 1.2116-0.16646 0.97014 0.12297 0.87272 0.89152-0.05589 0.44097-0.27842 0.6816-0.20992 0.24223-0.39891 0.21827-0.25198-0.03194-0.41862-0.23228-0.16663-0.20034-0.39342-0.22909-0.22519-0.04134-0.46812 0.15829-0.23033 0.20123-0.41364 0.53644-0.36661 0.67042-0.48638 1.6154-0.04489 0.45517 0.32954 0.73306 0.25802 0.18632 0.6344 0.24683 0.37798 0.04791 0.75009-0.16096 0.38472-0.20727 0.71123-0.46032 0.32811-0.26565 0.57423-0.49049 0.25872-0.22324 0.37212-0.20887z" style="fill:url(#linearGradient1112);stroke-width:.26458"/>
   <path d="m76.611 86.954q0.07919 1.3993 0.87726 1.5533 0.38657 0.0746 0.74404-0.10216 0.35747-0.17677 0.65981-0.40297 0.30475-0.23868 0.53752-0.43951 0.23277-0.20083 0.39488-0.16955 0.16211 0.03128 0.08029 0.45526-0.17086 0.88536-1.1527 1.5495-0.98184 0.66418-2.002 0.45438-1.0101-0.19493-1.464-2.1321-0.1282-0.54211-0.22905-1.0919l-0.41698 1.6915q-0.04572 0.23693-0.11639 0.46904-0.06826 0.21965-0.28418 0.33319-0.56093 0.29271-1.0597 0.19645-0.58609-0.11311-0.35265-1.3227 0.33691-1.7458 1.1166-3.5743 0.7797-1.8285 1.3516-2.7141 0.58674-0.89564 0.8613-1.179 0.28703-0.2809 0.42617-0.33166 0.13914-0.05075 0.28878-0.02188 0.16211 0.03128 0.3054 0.22708 0.1457 0.18333 0.28265 0.54605 0.13936 0.35025 0.07919 0.662-0.04529 0.30168-0.21527 0.5793-0.15511 0.26756-0.38504 0.52067-0.22752 0.24065-0.49727 0.49901-0.26734 0.2459-0.5443 0.54167l-0.32685 1.0234q0.61212-0.82608 1.5202-0.97418 0.32094-0.05447 0.71997 0.02254 0.79807 0.15402 1.1474 0.62241 0.35178 0.45592 0.2098 1.1916-0.14198 0.73572-0.97638 1.105t-1.5802 0.21242zm0.75542-1.3675q0.08664-0.44892-0.42463-0.54758-0.51127-0.09867-1.2999 0.77094-0.22993 0.25312-0.41238 0.52833 1.3113 0.17546 1.9055-0.35659 0.18814-0.17064 0.23146-0.3951z" style="fill:url(#linearGradient1112);stroke-width:.26458"/>
   <path d="m81.318 90.953q-1.7626-0.43777-2.0625-1.9302-0.10187-0.5242 0.07753-1.2255 0.18255-0.71362 0.51017-1.4819 0.65524-1.5365 1.7028-2.7106 0.53306-0.59774 1.1019-0.97659 1.249-0.83409 2.4393-0.51649 0.52906 0.13534 0.74882 0.50617 0.2352 0.36167 0.09672 0.90304t-0.60002 1.0132q-0.45838 0.45954-1.1139 0.92108-0.64008 0.45238-1.4066 0.93796-0.76655 0.48558-1.5368 1.0882l-0.1259 0.49215q-0.17625 0.68901 0.03721 1.0844 0.21346 0.39544 0.60718 0.49615 1.0581 0.27068 2.1377-0.56742 0.44236-0.34566 0.61462-0.30159 0.17225 0.04406 0.06524 0.46239-0.10701 0.41833-0.45409 0.80147-0.33163 0.37398-0.79516 0.64867-0.46039 0.26239-1 0.37341-0.53965 0.11102-1.0441-0.01802zm2.3546-6.4372q0.34021-0.2538 0.55395-0.47442 0.21374-0.22061 0.28298-0.4913 0.07239-0.28299-0.12447-0.33335-0.43063-0.11016-1.1863 0.64038-0.74337 0.75368-1.37 2.1271 0.58199-0.53279 1.0367-0.87529 0.46697-0.33936 0.80718-0.59316z" style="fill:url(#linearGradient1112);stroke-width:.26458"/>
   <path d="m91.121 90.746q0.21806 0.06863 0.04267 0.62588-0.09532 0.30285-0.48698 0.65889-0.38784 0.34393-0.91411 0.57772-0.51034 0.22549-1.0795 0.29933-0.56912 0.07384-1.0416-0.07486-0.64205-0.20208-0.50551-1.3973-0.47892 0.42178-1.0945 0.60083-0.61174 0.16694-1.4718-0.10376-0.84799-0.2669-1.2011-0.96387t-0.10082-1.4564q0.64818-2.0594 2.3907-2.8157 0.7378-0.31366 1.284-0.31482 0.55836 0.0027 1.1156 0.17804 0.55725 0.17539 0.84756 0.47979 0.28017-0.29793 0.49822-0.2293 0.424 0.13345 0.68134 0.62718 0.27327 0.48543 0.17032 0.81252-0.29542 0.34639-0.79789 0.80069-0.2723 0.52675-0.58877 1.5322t-0.06207 1.0855q0.31497 0.09913 1.9229-0.77946 0.29431-0.17365 0.39122-0.14315zm-5.9466-1.0728q-0.29359 0.93279 0.39692 1.1501 0.74278 0.22047 1.4714-0.40233 0.25348-0.21313 0.48452-0.56647 0.42703-1.3568 0.97434-2.2497-1.0423-0.11501-2.0055 0.4073-0.96324 0.52231-1.3216 1.661z" style="fill:url(#linearGradient1112);stroke-width:.26458"/>
   <path d="m89.933 92.867q-0.01374-0.37001 0.07892-0.80936 0.09701-0.45128 0.37554-1.2149 0.27852-0.76359 1.0392-1.9596l-0.5369-0.19584q-0.14317-0.05222-0.09965-0.17153 0.10445-0.28635 0.21745-0.4479 0.12929-0.16914 0.41915-0.33378l0.28635 0.10445q0.16704 0.06093 0.36228 0.11863 1.2429-1.6285 1.8394-1.4109 0.47289 0.18601 0.44619 0.85219-0.0132 0.18444-0.02318 0.3971l-0.80252 0.68061q0.82647 0.3285 1.0412 0.40683 0.22669 0.08269 0.22121 0.13476 0.01081 0.0445-0.01966 0.12801-0.07833 0.21476-0.30322 0.49773-0.21295 0.28732-0.33984 0.22752l-1.1713-0.49485q-0.78149 1.3642-1.1296 2.3187-0.34816 0.95449-0.07374 1.0546 0.22669 0.08269 0.95815-0.06958 0.73582-0.1642 1.1245-0.41446 0.38869-0.25026 0.55572-0.18933 0.16704 0.06093 0.01907 0.46658-0.14797 0.40566-0.59098 0.73073-0.43866 0.31314-1.0107 0.51005-0.55573 0.18933-1.1753 0.22018-0.60765 0.0352-1.0014-0.10841-0.39372-0.14362-0.5432-0.40092-0.1332-0.26488-0.16322-0.62731z" style="fill:url(#linearGradient1112);stroke-width:.26458"/>
   <path d="m95.833 94.383q0.91812 0.37194 2.073-0.0097 0.42749-0.14198 0.71819-0.28456 0.29547-0.15435 0.40141-0.11144 0.16479 0.06676 0.03127 0.39634-0.13352 0.32958-0.47698 0.67003-0.33869 0.32868-0.90803 0.55022-1.3985 0.54334-3.1642-0.17193-1.4007-0.56745-1.4968-1.7848-0.03351-0.42465 0.23353-1.0838 0.26704-0.65916 0.8121-1.2605 0.54984-0.61311 1.1834-0.95936 0.64533-0.34148 1.3248-0.39509 0.68421-0.06538 1.3198 0.19212 0.64739 0.26227 0.86 0.71836 0.22438 0.46087 0.01933 0.96701-0.20504 0.50614-0.59752 0.73082-0.37594 0.21767-0.86674 0.27919-0.48604 0.04975-1.0519 0.02603-0.54936-0.03072-1.106-0.0096l-0.11921 0.29427q-0.1599 0.42852 0.10993 0.74336 0.26983 0.31485 0.70058 0.50305zm1.1446-3.4004q-0.61208-0.24796-1.4245 1.0809 0.31395-0.06465 0.57827-0.1083 0.2761-0.03888 0.48858-0.08983 0.45803-0.1159 0.60332-0.44072 0.11921-0.29427-0.24568-0.44209z" style="fill:url(#linearGradient1112);stroke-width:.26458"/>
   <path d="m100.54 96.934q-0.94064 0.5351-1.9119 0.09376-0.78623-0.35727-1.1132-0.89643-0.31012-0.54546 0.01562-1.2623 0.1366-0.30062 0.33313-0.51821 0.20809-0.21234 0.57277-0.49301l1.5805-2.5879q0.48452-0.11462 1.0973 0.16384 0.5203 0.23643 0.27444 0.96169-0.0714 0.21863-0.2028 0.50768-0.1261 0.27749-0.36045 0.54764-1.1875 1.3854-1.4229 1.9341-0.18914 0.41624 0.29647 0.63691 0.48562 0.22067 0.85872 0.01357 0.3731-0.2071 0.74514-0.59604 0.88381-1.1468 1.5165-1.8637 0.64422-0.71164 0.78715-0.84199 0.24172-0.22495 0.57072-0.0894 0.31848 0.15867 0.40264 0.74095 0.0894 0.57072-0.0209 0.81352-0.39091 0.79885-2.8606 3.6244 1.0195-0.24817 2.1483-0.76752 0.39098-0.18503 0.65373-0.30278 0.268-0.12931 0.37206-0.08203 0.16188 0.07356-6e-3 0.44355-0.331 0.72842-1.5933 1.3266-1.2507 0.60345-2.677 0.61097-0.3489 0.39944-0.69992 0.74213-0.35102 0.34268-0.74724 0.53927-0.85972 0.41842-1.9928-0.0965-0.76311-0.34676-1.1069-1.0331-0.33221-0.68105-0.03274-1.3401 0.16813-0.36999 0.51076-0.47934 0.3542-0.1041 0.8503-0.06001 0.50241 0.0609 1.1331 0.20798 0.6254 0.15864 1.358 0.29624 0.47711-0.62018 0.67153-0.89453zm-2.991 2.4073q0.54343 0.24694 1.4136-0.50152-0.45302-0.10821-0.79252-0.22063-0.34476-0.10086-0.59177-0.17126-0.49401-0.14079-0.56126 0.0379-0.09983 0.21968 0.08624 0.48558 0.19763 0.27115 0.44569 0.36992z" style="fill:url(#linearGradient1112);stroke-width:.26458"/>
  </g>
 </g>
</svg>
